<?xml version="1.0" encoding="utf-8"?>
<!-- Generator: Adobe Illustrator 25.0.0, SVG Export Plug-In . SVG Version: 6.00 Build 0)  -->
<svg version="1.1" id="Layer_1" xmlns="http://www.w3.org/2000/svg" xmlns:xlink="http://www.w3.org/1999/xlink" x="0px" y="0px"
	 viewBox="0 0 384 512" style="enable-background:new 0 0 384 512;" xml:space="preserve">
<style type="text/css">
	.st0{fill:#18A088;}
</style>
<path class="st0" d="M64,464h256c8.8,0,16-7.2,16-16V138.5c0-4.2-1.7-8.3-4.7-11.3l-74.5-74.5c-3-3-7.1-4.7-11.3-4.7H64
	c-8.8,0-16,7.2-16,16v384C48,456.8,55.2,464,64,464z M320,512H64c-35.3,0-64-28.7-64-64V64C0,28.7,28.7,0,64,0h181.5
	c17,0,33.3,6.7,45.3,18.7l74.5,74.5c12,12,18.7,28.3,18.7,45.3V448C384,483.3,355.3,512,320,512z"/>
</svg>
