<?xml version="1.0" encoding="utf-8"?>
<!-- Generator: Adobe Illustrator 25.0.0, SVG Export Plug-In . SVG Version: 6.00 Build 0)  -->
<svg version="1.1" id="Layer_1" xmlns="http://www.w3.org/2000/svg" xmlns:xlink="http://www.w3.org/1999/xlink" x="0px" y="0px"
	 viewBox="0 0 512 512" style="enable-background:new 0 0 512 512;" xml:space="preserve">
<style type="text/css">
	.st0{fill:#18A088;}
</style>
<path class="st0" d="M326.3,218.8c0,20.5-16.7,37.2-37.2,37.2h-70.3v-74.4h70.3C309.6,181.6,326.3,198.3,326.3,218.8z M504,256
	c0,137-111,248-248,248S8,393,8,256S119,8,256,8S504,119,504,256z M375.9,218.8c0-47.9-38.9-86.8-86.8-86.8H169.2v248h49.6v-74.4
	h70.3C337,305.6,375.9,266.7,375.9,218.8L375.9,218.8z"/>
</svg>
